<?xml version='1.0' encoding='utf-8'?>
<svg version='1.1' xmlns='http://www.w3.org/2000/svg' viewBox='0 0 64 64'>
    <circle fill='#915121' cx='32' cy='32' r='32'/>
    <g transform='scale(0.148 0.148) translate(-438.9 -1385.4) translate(216, 216)' fill='white'>
        <path class="st21" d="M536.4,1438.2l-0.8-0.5l-0.8,0.5c-0.4,0.2-0.7,0.4-1,0.5l-86.5,33.6c-2.3,0.9-4.8,1.4-7.3,1.4
            c-2.4,0-4.9-0.4-7.1-1.3l-88.9-33.7c-0.3-0.1-0.7-0.3-1-0.5l-0.8-0.5l-0.8,0.5c-2.7,1.7-4.3,4.8-3.9,8.1c0.3,3.3,2.4,6,5.5,7.1
            l88.9,33.7c2.6,1,5.4,1.5,8.2,1.5c0,0,0,0,0,0c2.9,0,5.7-0.5,8.3-1.6l86.5-33.6c3.1-1.2,5.1-3.9,5.4-7.2
            C540.6,1443,539.1,1439.9,536.4,1438.2z"/>
        <path class="st21" d="M343.5,1419.2l88.9,33.7c5,1.9,10.5,1.9,15.5-0.1l86.5-33.6c6-2.3,6.1-10.8,0.1-13.2l-86.3-35.1
            c-5.2-2.1-10.9-2.1-16.1-0.1l-88.7,35.1C337.4,1408.3,337.5,1416.9,343.5,1419.2z"/>
        <path class="st21" d="M390.3,1321.3h-36.2c-0.8,0-1.4-0.6-1.4-1.4v-36.2c0-0.8,0.6-1.4,1.4-1.4h36.2c0.8,0,1.4,0.6,1.4,1.4v36.2
            C391.7,1320.7,391.1,1321.3,390.3,1321.3z"/>
        <path class="st21" d="M515.9,1339.1h-30.3c-0.8,0-1.4-0.6-1.4-1.4v-30.3c0-0.8,0.6-1.4,1.4-1.4h30.3c0.8,0,1.4,0.6,1.4,1.4v30.3
            C517.4,1338.4,516.7,1339.1,515.9,1339.1z"/>
        <path class="st21" d="M426.5,1354.5h-25.6c-0.8,0-1.4-0.6-1.4-1.4v-25.6c0-0.8,0.6-1.4,1.4-1.4h25.6c0.8,0,1.4,0.6,1.4,1.4v25.6
            C427.9,1353.8,427.3,1354.5,426.5,1354.5z"/>    
    </g>
</svg>